<svg width="45" height="54" viewBox="0 0 45 54" fill="none" xmlns="http://www.w3.org/2000/svg">
<path d="M44.8545 23.3497V41.5105C44.8545 42.8867 44.3294 44.2065 43.3947 45.1796C42.4601 46.1527 41.1924 46.6993 39.8706 46.6993H4.98383C3.66203 46.6993 2.39438 46.1527 1.45973 45.1796C0.52508 44.2065 0 42.8867 0 41.5105V23.3497H44.8545ZM32.3949 0C33.0558 0 33.6896 0.273338 34.1569 0.759884C34.6243 1.24643 34.8868 1.90633 34.8868 2.59441V5.18882H39.8706C41.1924 5.18882 42.4601 5.73549 43.3947 6.70858C44.3294 7.68168 44.8545 9.00147 44.8545 10.3776V18.1609H0V10.3776C0 9.00147 0.52508 7.68168 1.45973 6.70858C2.39438 5.73549 3.66203 5.18882 4.98383 5.18882H9.96766V2.59441C9.96766 1.90633 10.2302 1.24643 10.6975 0.759884C11.1648 0.273338 11.7987 0 12.4596 0C13.1205 0 13.7543 0.273338 14.2216 0.759884C14.6889 1.24643 14.9515 1.90633 14.9515 2.59441V5.18882H29.903V2.59441C29.903 1.90633 30.1655 1.24643 30.6328 0.759884C31.1002 0.273338 31.734 0 32.3949 0Z" fill="black"/>
</svg>
