<svg width="61" height="61" viewBox="0 0 61 61" fill="none" xmlns="http://www.w3.org/2000/svg">
<path d="M35.3313 22.7131C34.6162 22.7131 34.0173 22.4709 33.5344 21.9863C33.0516 21.5018 32.8093 20.9028 32.8076 20.1894V10.0947C32.8076 9.37968 33.0499 8.78073 33.5344 8.29787C34.019 7.815 34.6179 7.57273 35.3313 7.57104H50.4734C51.1884 7.57104 51.7882 7.81332 52.2727 8.29787C52.7573 8.78241 52.9987 9.38136 52.997 10.0947V20.1894C52.997 20.9045 52.7548 21.5043 52.2702 21.9888C51.7857 22.4734 51.1867 22.7148 50.4734 22.7131H35.3313ZM10.0945 32.8078C9.37944 32.8078 8.78049 32.5656 8.29762 32.081C7.81476 31.5965 7.57248 30.9975 7.5708 30.2842V10.0947C7.5708 9.37968 7.81307 8.78073 8.29762 8.29787C8.78217 7.815 9.38112 7.57273 10.0945 7.57104H25.2366C25.9516 7.57104 26.5514 7.81332 27.0359 8.29787C27.5205 8.78241 27.7619 9.38136 27.7602 10.0947V30.2842C27.7602 30.9992 27.518 31.599 27.0334 32.0836C26.5489 32.5681 25.9499 32.8095 25.2366 32.8078H10.0945ZM35.3313 52.9973C34.6162 52.9973 34.0173 52.755 33.5344 52.2705C33.0516 51.7859 32.8093 51.187 32.8076 50.4736V30.2842C32.8076 29.5691 33.0499 28.9702 33.5344 28.4873C34.019 28.0044 34.6179 27.7622 35.3313 27.7605H50.4734C51.1884 27.7605 51.7882 28.0028 52.2727 28.4873C52.7573 28.9719 52.9987 29.5708 52.997 30.2842V50.4736C52.997 51.1887 52.7548 51.7884 52.2702 52.273C51.7857 52.7575 51.1867 52.999 50.4734 52.9973H35.3313ZM10.0945 52.9973C9.37944 52.9973 8.78049 52.755 8.29762 52.2705C7.81476 51.7859 7.57248 51.187 7.5708 50.4736V40.3789C7.5708 39.6638 7.81307 39.0649 8.29762 38.582C8.78217 38.0992 9.38112 37.8569 10.0945 37.8552H25.2366C25.9516 37.8552 26.5514 38.0975 27.0359 38.582C27.5205 39.0666 27.7619 39.6655 27.7602 40.3789V50.4736C27.7602 51.1887 27.518 51.7884 27.0334 52.273C26.5489 52.7575 25.9499 52.999 25.2366 52.9973H10.0945Z" fill="black"/>
</svg>
