<svg width="24" height="25" viewBox="0 0 24 25" fill="none" xmlns="http://www.w3.org/2000/svg">
<path fill-rule="evenodd" clip-rule="evenodd" d="M11.44 4.36572H2.75C1.23062 4.36572 0 5.6706 0 7.27797V21.8365C0 23.4452 1.23062 24.7487 2.75 24.7487H17.875C19.3944 24.7487 20.625 23.4452 20.625 21.8365V11.1802L15.2433 16.8782C14.7733 17.3808 14.1612 17.7281 13.4888 17.8737L9.80237 18.6547C7.39612 19.1635 5.27587 16.9181 5.75712 14.3716L6.49412 10.468C6.6275 9.76397 6.95475 9.11635 7.43462 8.60897L11.44 4.36572Z" fill="black"/>
<path fill-rule="evenodd" clip-rule="evenodd" d="M23.1633 1.81093C23.0243 1.45897 22.8205 1.13622 22.5625 0.859433C22.3087 0.588735 22.0028 0.372181 21.6632 0.222808C21.3286 0.0758704 20.9671 0 20.6017 0C20.2363 0 19.8748 0.0758704 19.5402 0.222808C19.2006 0.372181 18.8947 0.588735 18.641 0.859433L17.8902 1.65418L21.8117 5.80668L22.5625 5.01056C22.8232 4.73587 23.0274 4.41256 23.1633 4.05906C23.4466 3.33645 23.4466 2.53354 23.1633 1.81093ZM19.8688 7.86506L15.946 3.71118L9.37758 10.6687C9.28067 10.7719 9.21531 10.9008 9.1892 11.0399L8.4522 14.9449C8.35595 15.4537 8.78083 15.9019 9.2607 15.8002L12.9485 15.0206C13.0826 14.9906 13.2048 14.9212 13.2991 14.8212L19.8688 7.86506Z" fill="black"/>
</svg>
