<svg width="53" height="53" viewBox="0 0 53 53" fill="none" xmlns="http://www.w3.org/2000/svg">
<path d="M26.9496 10.4352C26.7962 10.2885 26.5921 10.2066 26.3798 10.2066C26.1675 10.2066 25.9634 10.2885 25.81 10.4352L6.84157 28.5557C6.76101 28.6328 6.69692 28.7254 6.65318 28.8279C6.60944 28.9305 6.58695 29.0408 6.58708 29.1523L6.58398 46.159C6.58398 47.0334 6.93135 47.872 7.54967 48.4903C8.16799 49.1087 9.00661 49.456 9.88105 49.456H19.7826C20.2198 49.456 20.6391 49.2823 20.9482 48.9732C21.2574 48.664 21.4311 48.2447 21.4311 47.8075V33.795C21.4311 33.5764 21.5179 33.3667 21.6725 33.2121C21.8271 33.0575 22.0367 32.9707 22.2554 32.9707H30.498C30.7166 32.9707 30.9263 33.0575 31.0809 33.2121C31.2354 33.3667 31.3223 33.5764 31.3223 33.795V47.8075C31.3223 48.2447 31.496 48.664 31.8051 48.9732C32.1143 49.2823 32.5336 49.456 32.9708 49.456H42.8682C43.7426 49.456 44.5813 49.1087 45.1996 48.4903C45.8179 47.872 46.1653 47.0334 46.1653 46.159V29.1523C46.1654 29.0408 46.1429 28.9305 46.0992 28.8279C46.0554 28.7254 45.9913 28.6328 45.9108 28.5557L26.9496 10.4352Z" fill="black"/>
<path d="M50.58 25.1556L42.8731 17.7825V6.59412C42.8731 6.15691 42.6995 5.7376 42.3903 5.42844C42.0811 5.11928 41.6618 4.94559 41.2246 4.94559H36.279C35.8418 4.94559 35.4225 5.11928 35.1133 5.42844C34.8042 5.7376 34.6305 6.15691 34.6305 6.59412V9.89119L28.6628 4.18521C28.1043 3.62058 27.2739 3.29706 26.3765 3.29706C25.4821 3.29706 24.6538 3.62058 24.0953 4.18624L2.18013 25.1535C1.53926 25.7717 1.4589 26.7887 2.04206 27.4584C2.18851 27.6274 2.36782 27.7649 2.56908 27.8624C2.77034 27.96 2.98935 28.0156 3.21277 28.0258C3.43619 28.036 3.65936 28.0006 3.86868 27.9219C4.07801 27.8431 4.26912 27.7226 4.43038 27.5676L25.8098 7.13814C25.9632 6.9914 26.1673 6.9095 26.3796 6.9095C26.5918 6.9095 26.7959 6.9914 26.9493 7.13814L48.3308 27.5676C48.6458 27.8696 49.0676 28.0345 49.5039 28.026C49.9402 28.0175 50.3554 27.8363 50.6583 27.5222C51.291 26.867 51.2384 25.7851 50.58 25.1556Z" fill="black"/>
</svg>
