<svg width="195" height="96" viewBox="0 0 195 96" fill="none" xmlns="http://www.w3.org/2000/svg">
<path d="M36.992 39.152C36.992 41.5413 36.416 43.7813 35.264 45.872C34.1547 47.9627 32.384 49.648 29.952 50.928C27.5627 52.208 24.5333 52.848 20.864 52.848H13.376V70H4.416V25.328H20.864C24.32 25.328 27.264 25.9253 29.696 27.12C32.128 28.3147 33.9413 29.9573 35.136 32.048C36.3733 34.1387 36.992 36.5067 36.992 39.152ZM20.48 45.616C22.9547 45.616 24.7893 45.0613 25.984 43.952C27.1787 42.8 27.776 41.2 27.776 39.152C27.776 34.8 25.344 32.624 20.48 32.624H13.376V45.616H20.48Z" fill="black"/>
<path d="M41.0495 52.144C41.0495 48.56 41.7535 45.3813 43.1615 42.608C44.6122 39.8347 46.5535 37.7013 48.9855 36.208C51.4602 34.7147 54.2122 33.968 57.2415 33.968C59.8868 33.968 62.1908 34.5013 64.1535 35.568C66.1588 36.6347 67.7588 37.9787 68.9535 39.6V34.544H77.9775V70H68.9535V64.816C67.8015 66.48 66.2015 67.8667 64.1535 68.976C62.1482 70.0427 59.8228 70.576 57.1775 70.576C54.1908 70.576 51.4602 69.808 48.9855 68.272C46.5535 66.736 44.6122 64.5813 43.1615 61.808C41.7535 58.992 41.0495 55.7707 41.0495 52.144ZM68.9535 52.272C68.9535 50.096 68.5268 48.24 67.6735 46.704C66.8202 45.1253 65.6682 43.9307 64.2175 43.12C62.7668 42.2667 61.2095 41.84 59.5455 41.84C57.8815 41.84 56.3455 42.2453 54.9375 43.056C53.5295 43.8667 52.3775 45.0613 51.4815 46.64C50.6282 48.176 50.2015 50.0107 50.2015 52.144C50.2015 54.2773 50.6282 56.1547 51.4815 57.776C52.3775 59.3547 53.5295 60.5707 54.9375 61.424C56.3882 62.2773 57.9242 62.704 59.5455 62.704C61.2095 62.704 62.7668 62.2987 64.2175 61.488C65.6682 60.6347 66.8202 59.44 67.6735 57.904C68.5268 56.3253 68.9535 54.448 68.9535 52.272ZM95.6885 40.048C96.8405 38.1707 98.3338 36.6987 100.169 35.632C102.046 34.5653 104.179 34.032 106.569 34.032V43.44H104.201C101.385 43.44 99.2512 44.1013 97.8005 45.424C96.3925 46.7467 95.6885 49.0507 95.6885 52.336V70H86.7285V34.544H95.6885V40.048ZM123.036 41.904V59.056C123.036 60.2507 123.313 61.1253 123.868 61.68C124.465 62.192 125.446 62.448 126.812 62.448H130.972V70H125.34C117.788 70 114.012 66.3307 114.012 58.992V41.904H109.788V34.544H114.012V25.776H123.036V34.544H130.972V41.904H123.036Z" fill="white"/>
<path d="M164.116 22.92C150.272 22.92 139.061 34.1559 139.061 48C139.061 61.8442 150.272 73.08 164.116 73.08C177.985 73.08 189.221 61.8442 189.221 48C189.221 34.1559 177.985 22.92 164.116 22.92ZM174.173 58.032C173.941 58.2645 173.665 58.449 173.362 58.5748C173.059 58.7007 172.733 58.7655 172.405 58.7655C172.076 58.7655 171.751 58.7007 171.448 58.5748C171.144 58.449 170.869 58.2645 170.637 58.032L162.385 49.7807C162.148 49.5484 161.96 49.2714 161.831 48.9658C161.702 48.6601 161.634 48.3318 161.633 48V37.968C161.633 36.5886 162.762 35.46 164.141 35.46C165.52 35.46 166.649 36.5886 166.649 37.968V46.9717L174.173 54.4957C175.151 55.4738 175.151 57.0539 174.173 58.032Z" fill="black"/>
</svg>
