<svg width="73" height="67" viewBox="0 0 73 67" fill="none" xmlns="http://www.w3.org/2000/svg">
<path d="M5.53581 58.6796C4.01347 58.6796 2.7107 58.138 1.62753 57.0549C0.544355 55.9717 0.00184527 54.668 0 53.1438V14.3931C0 12.8708 0.54251 11.568 1.62753 10.4848C2.71255 9.40166 4.01531 8.85915 5.53581 8.8573H22.1433C22.9275 8.8573 23.5853 9.12302 24.1168 9.65446C24.6482 10.1859 24.913 10.8428 24.9112 11.6252C24.9093 12.4076 24.6436 13.0654 24.114 13.5987C23.5844 14.132 22.9275 14.3968 22.1433 14.3931H5.53581V53.1438H22.1433C22.9275 53.1438 23.5853 53.4095 24.1168 53.941C24.6482 54.4724 24.913 55.1293 24.9112 55.9117C24.9093 56.6941 24.6436 57.352 24.114 57.8852C23.5844 58.4185 22.9275 58.6833 22.1433 58.6796H5.53581ZM39.2351 36.5364H19.3754C18.5911 36.5364 17.9342 36.2707 17.4046 35.7392C16.875 35.2078 16.6093 34.5509 16.6074 33.7685C16.6056 32.9861 16.8713 32.3292 17.4046 31.7977C17.9379 31.2663 18.5948 31.0006 19.3754 31.0006H39.2351L34.0453 25.8107C33.5378 25.3033 33.2841 24.6805 33.2841 23.9424C33.2841 23.2043 33.5378 22.5584 34.0453 22.0049C34.5527 21.4513 35.1986 21.1625 35.9828 21.1385C36.767 21.1145 37.4359 21.3802 37.9895 21.9357L47.8848 31.8309C48.4384 32.3845 48.7152 33.0304 48.7152 33.7685C48.7152 34.5066 48.4384 35.1524 47.8848 35.706L37.9895 45.6013C37.4359 46.1549 36.779 46.4206 36.0188 46.3984C35.2585 46.3763 34.6007 46.0875 34.0453 45.5321C33.5378 44.9785 33.2961 44.3216 33.3201 43.5613C33.3441 42.8011 33.6089 42.1663 34.1145 41.657L39.2351 36.5364Z" fill="black"/>
</svg>
