<svg width="64" height="64" viewBox="0 0 64 64" fill="none" xmlns="http://www.w3.org/2000/svg">
<path d="M44.9783 23.8121V18.5205C44.9783 11.1123 39.1576 5.29156 31.7494 5.29156C24.3411 5.29156 18.5204 11.1123 18.5204 18.5205V23.8121C14.0225 23.8121 10.583 27.2517 10.583 31.7495V50.2701C10.583 54.7679 14.0225 58.2074 18.5204 58.2074H44.9783C49.4762 58.2074 52.9157 54.7679 52.9157 50.2701V31.7495C52.9157 27.2517 49.4762 23.8121 44.9783 23.8121ZM23.812 18.5205C23.812 14.0227 27.2515 10.5832 31.7494 10.5832C36.2472 10.5832 39.6867 14.0227 39.6867 18.5205V23.8121H23.812V18.5205ZM34.6597 41.0098L34.3952 41.2744V44.9785C34.3952 46.5659 33.3368 47.6243 31.7494 47.6243C30.1619 47.6243 29.1036 46.5659 29.1036 44.9785V41.2744C27.5161 39.6869 27.2515 37.3057 28.839 35.7182C30.4265 34.1307 32.8077 33.8661 34.3952 35.4536C35.9826 36.7765 36.2472 39.4223 34.6597 41.0098Z" fill="black"/>
</svg>
