<svg width="81" height="81" viewBox="0 0 81 81" fill="none" xmlns="http://www.w3.org/2000/svg">
<path d="M52.5698 40.0533C49.353 40.0533 46.2426 38.617 43.8082 36.0104C41.4409 33.468 39.9953 30.0775 39.7402 26.4665C39.468 22.6145 40.643 19.0723 43.0478 16.4907C45.4525 13.9091 48.8148 12.5167 52.5698 12.5167C56.2982 12.5167 59.6699 13.9342 62.0668 16.5095C64.4872 19.1098 65.6653 22.6458 65.3931 26.4649C65.1318 30.0806 63.6877 33.4695 61.3252 36.0088C58.897 38.617 55.7881 40.0533 52.5698 40.0533ZM73.1957 67.5899H31.9455C31.2823 67.5934 30.6271 67.4448 30.0304 67.1554C29.4336 66.8659 28.9113 66.4435 28.5034 65.9205C28.0708 65.3535 27.7721 64.696 27.6296 63.9972C27.487 63.2985 27.5044 62.5765 27.6805 61.8854C28.9978 56.5956 32.2615 52.2085 37.118 49.1998C41.4284 46.5306 46.9154 45.0599 52.5698 45.0599C58.3353 45.0599 63.6783 46.468 68.0138 49.1357C72.8812 52.1287 76.1496 56.5408 77.4607 61.8948C77.6346 62.5864 77.65 63.3084 77.5059 64.0068C77.3618 64.7052 77.0618 65.362 76.6283 65.9283C76.2209 66.4489 75.6998 66.8693 75.1047 67.1573C74.5097 67.4453 73.8567 67.5933 73.1957 67.5899ZM22.9992 40.6791C17.4935 40.6791 12.6527 35.5598 12.2036 29.2686C11.9815 26.0456 12.9859 23.0651 15.0199 20.8793C17.0319 18.7155 19.8701 17.5233 22.9992 17.5233C26.1284 17.5233 28.9446 18.7218 30.9676 20.8981C33.0172 23.101 34.0186 26.0753 33.7839 29.2717C33.3349 35.5614 28.4956 40.6791 22.9992 40.6791ZM33.2723 45.5997C30.5202 44.2542 26.9482 43.5814 23.0008 43.5814C18.3915 43.5814 13.9153 44.783 10.395 46.964C6.40374 49.4408 3.71892 53.0471 2.63466 57.4013C2.47599 58.0276 2.46099 58.6817 2.59076 59.3146C2.72054 59.9475 2.99175 60.5429 3.3841 61.0562C3.75639 61.5341 4.23333 61.9203 4.77824 62.185C5.32316 62.4497 5.92153 62.586 6.52734 62.5832H23.8942C24.1873 62.5832 24.4711 62.4803 24.6961 62.2924C24.9212 62.1046 25.0731 61.8437 25.1255 61.5553C25.1427 61.4567 25.1646 61.3582 25.1896 61.2611C26.5164 55.9322 29.6252 51.4293 34.2188 48.1468C34.3878 48.0251 34.5237 47.863 34.6142 47.6755C34.7047 47.4879 34.747 47.2807 34.7372 47.0726C34.7274 46.8646 34.6659 46.6623 34.5581 46.484C34.4504 46.3058 34.2999 46.1573 34.1203 46.0519C33.8746 45.9079 33.593 45.7562 33.2723 45.5997Z" fill="black"/>
</svg>
