<svg width="61" height="61" viewBox="0 0 61 61" fill="none" xmlns="http://www.w3.org/2000/svg">
<path d="M39.3506 7.63966C37.0485 5.15422 33.8332 3.78552 30.2843 3.78552C26.7164 3.78552 23.4905 5.14594 21.199 7.616C18.8828 10.1133 17.7542 13.5072 18.0192 17.1721C18.5444 24.4024 24.0465 30.2842 30.2843 30.2842C36.5221 30.2842 42.0147 24.4036 42.5482 17.1744C42.8167 13.5427 41.6811 10.1558 39.3506 7.63966ZM51.1047 56.7828H9.46393C8.91889 56.7899 8.37913 56.6754 7.88391 56.4476C7.38869 56.2199 6.95047 55.8846 6.60113 55.4662C5.8322 54.547 5.52226 53.2919 5.75176 52.0225C6.75019 46.4838 9.86614 41.8312 14.7637 38.565C19.1146 35.6655 24.6261 34.0697 30.2843 34.0697C35.9425 34.0697 41.4539 35.6667 45.8049 38.565C50.7024 41.83 53.8184 46.4826 54.8168 52.0213C55.0463 53.2907 54.7364 54.5458 53.9675 55.465C53.6182 55.8836 53.1801 56.2191 52.6848 56.4471C52.1896 56.6751 51.6498 56.7898 51.1047 56.7828Z" fill="black"/>
</svg>
