<svg width="76" height="76" viewBox="0 0 76 76" fill="none" xmlns="http://www.w3.org/2000/svg">
<path d="M33.8497 7.52222C29.8596 7.52222 26.033 9.10725 23.2117 11.9286C20.3903 14.75 18.8053 18.5766 18.8053 22.5666C18.8053 26.5566 20.3903 30.3832 23.2117 33.2046C26.033 36.026 29.8596 37.611 33.8497 37.611C37.8397 37.611 41.6663 36.026 44.4877 33.2046C47.309 30.3832 48.8941 26.5566 48.8941 22.5666C48.8941 18.5766 47.309 14.75 44.4877 11.9286C41.6663 9.10725 37.8397 7.52222 33.8497 7.52222ZM15.078 41.3721C14.0873 41.3676 13.1055 41.5589 12.189 41.9349C11.2725 42.311 10.4392 42.8643 9.73713 43.5633C9.03504 44.2622 8.47793 45.093 8.09779 46.0078C7.71765 46.9227 7.52196 47.9036 7.52197 48.8943C7.52197 55.2543 10.655 60.0497 15.5519 63.1752C20.3736 66.248 26.8728 67.6998 33.8497 67.6998C35.3967 67.6998 36.9137 67.6283 38.4006 67.4854C35.4487 63.8157 33.8426 59.2456 33.8497 54.5359C33.8497 49.5337 35.6249 44.9451 38.5774 41.3721H15.078ZM71.4606 54.5359C71.4606 59.0247 69.6775 63.3296 66.5034 66.5037C63.3294 69.6777 59.0245 71.4609 54.5357 71.4609C50.0469 71.4609 45.742 69.6777 42.568 66.5037C39.3939 63.3296 37.6108 59.0247 37.6108 54.5359C37.6108 50.0472 39.3939 45.7422 42.568 42.5682C45.742 39.3942 50.0469 37.611 54.5357 37.611C59.0245 37.611 63.3294 39.3942 66.5034 42.5682C69.6775 45.7422 71.4606 50.0472 71.4606 54.5359ZM56.326 44.6066C56.2173 44.2153 55.9835 43.8703 55.6601 43.6245C55.3368 43.3787 54.9418 43.2456 54.5357 43.2456C54.1295 43.2456 53.7346 43.3787 53.4113 43.6245C53.0879 43.8703 52.8541 44.2153 52.7454 44.6066L50.9514 50.3686H45.1329C43.3126 50.3686 42.5528 52.8021 44.0272 53.9191L48.7286 57.4809L46.9345 63.2429C46.3704 65.0482 48.3562 66.5527 49.8306 65.4356L54.5319 61.8738L59.2333 65.4356C60.7077 66.5527 62.6935 65.0482 62.1293 63.2429L60.3353 57.4809L65.0367 53.9191C66.511 52.8021 65.7513 50.3686 63.9309 50.3686H58.12L56.326 44.6066Z" fill="black"/>
</svg>
