<svg width="64" height="64" viewBox="0 0 64 64" fill="none" xmlns="http://www.w3.org/2000/svg">
<path d="M13.2291 55.5616H50.2702C53.1806 55.5616 55.5618 53.1804 55.5618 50.2701V21.1663C55.5618 20.452 55.2707 19.7905 54.7945 19.2878L44.2113 8.70464C43.9641 8.45943 43.6709 8.26542 43.3486 8.13376C43.0262 8.00209 42.681 7.93535 42.3328 7.93736H13.2291C10.3187 7.93736 7.9375 10.3186 7.9375 13.2289V50.2701C7.9375 53.1804 10.3187 55.5616 13.2291 55.5616ZM18.5207 13.2289H29.1038V18.5205H34.3954V13.2289H39.687V23.8121H18.5207V13.2289ZM18.5207 34.3953C18.5207 32.9401 19.7113 31.7495 21.1665 31.7495H42.3328C43.788 31.7495 44.9786 32.9401 44.9786 34.3953V50.2701H18.5207V34.3953Z" fill="black"/>
</svg>
