<svg width="75" height="75" viewBox="0 0 75 75" fill="none" xmlns="http://www.w3.org/2000/svg">
<path d="M56.25 31.25H43.75V18.75C43.75 17.0924 43.0915 15.5027 41.9194 14.3306C40.7473 13.1585 39.1576 12.5 37.5 12.5C35.8424 12.5 34.2527 13.1585 33.0806 14.3306C31.9085 15.5027 31.25 17.0924 31.25 18.75L31.4719 31.25H18.75C17.0924 31.25 15.5027 31.9085 14.3306 33.0806C13.1585 34.2527 12.5 35.8424 12.5 37.5C12.5 39.1576 13.1585 40.7473 14.3306 41.9194C15.5027 43.0915 17.0924 43.75 18.75 43.75L31.4719 43.5281L31.25 56.25C31.25 57.9076 31.9085 59.4973 33.0806 60.6694C34.2527 61.8415 35.8424 62.5 37.5 62.5C39.1576 62.5 40.7473 61.8415 41.9194 60.6694C43.0915 59.4973 43.75 57.9076 43.75 56.25V43.5281L56.25 43.75C57.9076 43.75 59.4973 43.0915 60.6694 41.9194C61.8415 40.7473 62.5 39.1576 62.5 37.5C62.5 35.8424 61.8415 34.2527 60.6694 33.0806C59.4973 31.9085 57.9076 31.25 56.25 31.25Z" fill="black"/>
</svg>
