<svg width="57" height="60" viewBox="0 0 57 60" fill="none" xmlns="http://www.w3.org/2000/svg">
<path d="M34.0224 34.1585V34.0168H6.3808C4.68851 34.0168 3.06552 34.689 1.86889 35.8856C0.672261 37.0823 0 38.7053 0 40.3975V43.0038C0 44.6259 0.510464 46.2083 1.44915 47.5299C5.82213 53.6668 12.98 56.704 22.6788 56.704C24.7055 56.704 26.6207 56.5717 28.4243 56.307C28.3752 55.9689 28.3505 55.6277 28.3506 55.2861V41.1065C28.3503 39.4721 28.9146 37.8878 29.9482 36.6217C30.9818 35.3556 32.421 34.4854 34.0224 34.1585ZM22.6788 0C24.5409 -2.77472e-08 26.3847 0.366764 28.1051 1.07935C29.8254 1.79194 31.3885 2.8364 32.7052 4.15309C34.0219 5.46979 35.0664 7.03293 35.779 8.75327C36.4916 10.4736 36.8583 12.3175 36.8583 14.1796C36.8583 16.0416 36.4916 17.8855 35.779 19.6058C35.0664 21.3262 34.0219 22.8893 32.7052 24.206C31.3885 25.5227 29.8254 26.5672 28.1051 27.2798C26.3847 27.9923 24.5409 28.3591 22.6788 28.3591C18.9181 28.3591 15.3115 26.8652 12.6523 24.206C9.99314 21.5468 8.49923 17.9402 8.49923 14.1796C8.49923 10.4189 9.99314 6.81228 12.6523 4.1531C15.3115 1.49391 18.9181 0 22.6788 0ZM36.8583 36.8527V34.0168C36.8583 32.1364 37.6053 30.3331 38.9349 29.0035C40.2645 27.6739 42.0678 26.927 43.9481 26.927C45.8284 26.927 47.6318 27.6739 48.9613 29.0035C50.2909 30.3331 51.0379 32.1364 51.0379 34.0168V36.8527H52.4558C53.584 36.8527 54.666 37.3008 55.4638 38.0986C56.2615 38.8963 56.7097 39.9783 56.7097 41.1065V55.2861C56.7097 56.4143 56.2615 57.4963 55.4638 58.294C54.666 59.0918 53.584 59.5399 52.4558 59.5399H35.4404C34.3122 59.5399 33.2302 59.0918 32.4324 58.294C31.6347 57.4963 31.1865 56.4143 31.1865 55.2861V41.1065C31.1865 39.9783 31.6347 38.8963 32.4324 38.0986C33.2302 37.3008 34.3122 36.8527 35.4404 36.8527H36.8583ZM41.1122 34.0168V36.8527H46.784V34.0168C46.784 33.2646 46.4852 32.5433 45.9534 32.0115C45.4216 31.4796 44.7002 31.1808 43.9481 31.1808C43.196 31.1808 42.4747 31.4796 41.9428 32.0115C41.411 32.5433 41.1122 33.2646 41.1122 34.0168ZM46.784 48.1963C46.784 47.4442 46.4852 46.7228 45.9534 46.191C45.4216 45.6592 44.7002 45.3604 43.9481 45.3604C43.196 45.3604 42.4747 45.6592 41.9428 46.191C41.411 46.7228 41.1122 47.4442 41.1122 48.1963C41.1122 48.9484 41.411 49.6698 41.9428 50.2016C42.4747 50.7334 43.196 51.0322 43.9481 51.0322C44.7002 51.0322 45.4216 50.7334 45.9534 50.2016C46.4852 49.6698 46.784 48.9484 46.784 48.1963Z" fill="black"/>
</svg>
