<svg width="56" height="56" viewBox="0 0 56 56" fill="none" xmlns="http://www.w3.org/2000/svg">
<path d="M24.3617 0C20.6696 0 17.1287 1.38039 14.5181 3.83751C11.9074 6.29462 10.4407 9.62718 10.4407 13.1021C10.4407 16.577 11.9074 19.9095 14.5181 22.3666C17.1287 24.8237 20.6696 26.2041 24.3617 26.2041C28.0537 26.2041 31.5946 24.8237 34.2052 22.3666C36.8159 19.9095 38.2826 16.577 38.2826 13.1021C38.2826 9.62718 36.8159 6.29462 34.2052 3.83751C31.5946 1.38039 28.0537 0 24.3617 0ZM6.99179 29.4797C6.0751 29.4758 5.16662 29.6423 4.31852 29.9698C3.47042 30.2973 2.6994 30.7792 2.04974 31.388C1.40008 31.9967 0.884569 32.7201 0.532815 33.5169C0.181062 34.3136 -9.28132e-06 35.1679 3.56815e-10 36.0307C3.56817e-10 41.5696 2.89904 45.7459 7.43031 48.4678C11.2098 50.7345 16.1065 51.989 21.4417 52.3198C21.0694 51.2938 20.8801 50.2169 20.8814 49.1328V36.0307C20.8814 33.5151 21.8872 31.2157 23.5403 29.4797H6.99179ZM24.3617 36.0307C24.3617 34.2932 25.095 32.627 26.4003 31.3984C27.7057 30.1698 29.4761 29.4797 31.3221 29.4797H48.7233C50.5693 29.4797 52.3398 30.1698 53.6451 31.3984C54.9505 32.627 55.6838 34.2932 55.6838 36.0307V49.1328C55.6838 50.8702 54.9505 52.5365 53.6451 53.765C52.3398 54.9936 50.5693 55.6838 48.7233 55.6838H31.3221C29.4761 55.6838 27.7057 54.9936 26.4003 53.765C25.095 52.5365 24.3617 50.8702 24.3617 49.1328V36.0307ZM46.9832 45.8572H33.0622C32.6007 45.8572 32.1581 46.0298 31.8318 46.3369C31.5055 46.6441 31.3221 47.0606 31.3221 47.495C31.3221 47.9294 31.5055 48.3459 31.8318 48.6531C32.1581 48.9602 32.6007 49.1328 33.0622 49.1328H46.9832C47.4447 49.1328 47.8873 48.9602 48.2136 48.6531C48.54 48.3459 48.7233 47.9294 48.7233 47.495C48.7233 47.0606 48.54 46.6441 48.2136 46.3369C47.8873 46.0298 47.4447 45.8572 46.9832 45.8572ZM33.0622 36.0307C32.6007 36.0307 32.1581 36.2032 31.8318 36.5104C31.5055 36.8175 31.3221 37.2341 31.3221 37.6684C31.3221 38.1028 31.5055 38.5194 31.8318 38.8265C32.1581 39.1337 32.6007 39.3062 33.0622 39.3062H46.9832C47.4447 39.3062 47.8873 39.1337 48.2136 38.8265C48.54 38.5194 48.7233 38.1028 48.7233 37.6684C48.7233 37.2341 48.54 36.8175 48.2136 36.5104C47.8873 36.2032 47.4447 36.0307 46.9832 36.0307H33.0622Z" fill="black"/>
</svg>
