<svg width="49" height="49" viewBox="0 0 49 49" fill="none" xmlns="http://www.w3.org/2000/svg">
<path d="M42.3123 48.357C43.9155 48.357 45.453 47.8475 46.5865 46.9406C47.7201 46.0338 48.357 44.8038 48.357 43.5213V14.5071L30.2231 0H6.04462C4.44149 0 2.90401 0.509474 1.77043 1.41634C0.636842 2.32321 0 3.55319 0 4.8357V43.5213C0 44.8038 0.636842 46.0338 1.77043 46.9406C2.90401 47.8475 4.44149 48.357 6.04462 48.357H42.3123ZM27.2008 4.8357L42.3123 16.9249H27.2008V4.8357ZM9.06693 14.5071H18.1339V19.3428H9.06693V14.5071ZM9.06693 24.1785H39.29V29.0142H9.06693V24.1785ZM9.06693 33.8499H39.29V38.6856H9.06693V33.8499Z" fill="black"/>
</svg>
