<svg width="46" height="52" viewBox="0 0 46 52" fill="none" xmlns="http://www.w3.org/2000/svg">
<path d="M28.4585 25.6098V48.0326C28.5723 48.8863 28.2878 49.7968 27.6333 50.3944C27.37 50.6582 27.0573 50.8675 26.7131 51.0103C26.3689 51.1531 25.9999 51.2266 25.6272 51.2266C25.2545 51.2266 24.8855 51.1531 24.5413 51.0103C24.197 50.8675 23.8843 50.6582 23.6211 50.3944L17.9016 44.6749C17.5914 44.3714 17.3555 44.0003 17.2124 43.5906C17.0693 43.1809 17.0227 42.7437 17.0764 42.3131V25.6098H16.991L0.600714 4.60977C0.138623 4.01656 -0.0698823 3.26456 0.0207597 2.5181C0.111402 1.77163 0.493821 1.09139 1.08446 0.626018C1.62511 0.227643 2.22267 0 2.84869 0H42.6862C43.3122 0 43.9097 0.227643 44.4504 0.626018C45.041 1.09139 45.4235 1.77163 45.5141 2.5181C45.6047 3.26456 45.3962 4.01656 44.9341 4.60977L28.5439 25.6098H28.4585Z" fill="black"/>
</svg>
