<svg width="74" height="74" viewBox="0 0 74 74" fill="none" xmlns="http://www.w3.org/2000/svg">
<path d="M13.646 64.1096H59.6218C64.3231 64.1096 67.2538 59.0114 64.9032 54.9511L41.9153 15.2337C39.5646 11.1734 33.7031 11.1734 31.3525 15.2337L8.36459 54.9511C6.0139 59.0114 8.94462 64.1096 13.646 64.1096ZM36.6339 42.7398C34.9548 42.7398 33.581 41.366 33.581 39.6869V33.5812C33.581 31.9022 34.9548 30.5284 36.6339 30.5284C38.3129 30.5284 39.6867 31.9022 39.6867 33.5812V39.6869C39.6867 41.366 38.3129 42.7398 36.6339 42.7398ZM39.6867 54.9511H33.581V48.8454H39.6867V54.9511Z" fill="black"/>
</svg>
